# xmcd CD database file
#
# Track frame offsets:
#	187
#	29927
#	41465
#	55607
#	75682
#	96817
#	114447
#	138212
#	171857
#
# Disc length: 2506 seconds
#
# Revision: 0
# Processed by: cddbd v1.4PL0 Copyright (c) Steve Scherf et al.
# Submitted via: CDex 1.50
#
DISCID=6f09c809
DTITLE=Dick Johnson - Most Likely
DYEAR=1957
DGENRE=Jazz
TTITLE0=Lee-Antics
TTITLE1=It's So Peacefu In The Country
TTITLE2=Aw C'mon Hoss
TTITLE3=Stella By Starlight
TTITLE4=Me 'N' Dave
TTITLE5=It's Bad For Me
TTITLE6=The End Of A Love Affair
TTITLE7=Folderol
TTITLE8=The Loop
EXTD=YEAR: 1957
EXTT0=
EXTT1=
EXTT2=
EXTT3=
EXTT4=
EXTT5=
EXTT6=
EXTT7=
EXTT8=
PLAYORDER=
